<svg width="42" height="49" viewBox="0 0 42 49" fill="none" xmlns="http://www.w3.org/2000/svg">
<path fill-rule="evenodd" clip-rule="evenodd" d="M15 0C13.6076 0 12.2723 0.632697 11.2877 1.7589C10.3031 2.88511 9.75 4.41258 9.75 6.00528V10.2948H6C4.4087 10.2948 2.88258 11.0178 1.75736 12.3049C0.632141 13.592 0 15.3377 0 17.1579V41.179C0 42.9993 0.632141 44.7449 1.75736 46.032C2.88258 47.3191 4.4087 48.0422 6 48.0422H36C37.5913 48.0422 39.1174 47.3191 40.2426 46.032C41.3679 44.7449 42 42.9993 42 41.179V17.1579C42 15.3377 41.3679 13.592 40.2426 12.3049C39.1174 11.0178 37.5913 10.2948 36 10.2948H32.25V6.00528C32.25 4.41258 31.6969 2.88511 30.7123 1.7589C29.7277 0.632697 28.3924 0 27 0H15ZM27.75 10.2948V6.00528C27.75 5.77775 27.671 5.55954 27.5303 5.39865C27.3897 5.23777 27.1989 5.14738 27 5.14738H15C14.8011 5.14738 14.6103 5.23777 14.4697 5.39865C14.329 5.55954 14.25 5.77775 14.25 6.00528V10.2948H27.75ZM6 15.4421H36C36.3978 15.4421 36.7794 15.6229 37.0607 15.9447C37.342 16.2665 37.5 16.7029 37.5 17.1579V20.5895H4.5V17.1579C4.5 16.7029 4.65804 16.2665 4.93934 15.9447C5.22064 15.6229 5.60218 15.4421 6 15.4421ZM4.5 25.7369V41.179C4.5 41.6341 4.65804 42.0705 4.93934 42.3923C5.22064 42.7141 5.60218 42.8948 6 42.8948H36C36.3978 42.8948 36.7794 42.7141 37.0607 42.3923C37.342 42.0705 37.5 41.6341 37.5 41.179V25.7369H24V30.8843H18V25.7369H4.5Z" fill="#505A5F"/>
</svg>
